<?xml version="1.0" encoding="utf-8"?>
<!-- Generator: Adobe Illustrator 19.0.0, SVG Export Plug-In . SVG Version: 6.00 Build 0)  -->
<svg version="1.1" id="Layer_1" xmlns="http://www.w3.org/2000/svg" xmlns:xlink="http://www.w3.org/1999/xlink" x="0px" y="0px"
	 viewBox="0 0 411.7 411.7" style="enable-background:new 0 0 411.7 411.7;" xml:space="preserve">
<style type="text/css">
	.st0{fill:#2AA9E0;}
	.st1{fill:#9BD7F3;}
	.st2{fill:#EDF8FE;}
	.st3{fill:#304358;}
	.st4{fill:#CA2E2D;}
</style>
<circle id="XMLID_17_" class="st0" cx="205.9" cy="205.9" r="205.9"/>
<circle id="XMLID_16_" class="st1" cx="210.5" cy="205" r="105.4"/>
<g id="XMLID_11_">
	<path id="XMLID_12_" class="st2" d="M362.5,179.9c-0.1-5.1-5.5-7.6-10.6-7.5l-22.7,0.6c-3.5-14.2-8.8-25.1-15.8-35.7l0.1-0.4
		l15.6-16.7c3.5-3.7,3.3-9.5-0.3-13L300.2,80c-3.7-3.5-9.5-3.4-12.9,0.3l-15.4,16.5c-11.3-6.5-21.2-11.1-35.6-13.6l0-0.1l-0.6-22.7
		c-0.1-5.1-4.9-8.6-9.9-8.4l-39.5,1c-5.1,0.1-6.8,3.8-6.7,8.9l0.6,22.7c-14.2,3.5-25.5,8.8-36.1,15.8l-0.6-0.1l-16.8-15.6
		c-3.7-3.5-9.6-3.3-13.1,0.3l-27.3,28.7c-3.5,3.7-3.4,9.5,0.3,12.9l16.5,16.3c-6.5,11.3-11.1,21.5-13.6,36.5h-0.1l-22.7,0.6
		c-5.1,0.1-7.8,3.1-7.6,8.2l1,39.5c0.1,5.1,3,8.6,8.1,8.4l22.7-0.6c3.5,14.2,8.8,24.6,15.8,35.2l-0.1,0.2l-15.7,16.5
		c-3.5,3.7-3.3,9.5,0.3,13l28.7,27.2c3.7,3.5,9.5,3.3,12.9-0.3l10.4-10.3l6.3-6.2c6.6,3.8,13.2,6.9,20.4,9.4c1.4,0.5,3,1,4.5,1.4
		c0,0,0,0,0.1,0c3.8,1.1,8,2,12,2.8v0.1l0.2,11.2l0.3,11.5c0.1,5,2.3,9.5,7.4,9.4l39.5-1c5-0.1,9.4-4.8,9.2-9.8l-0.3-10.1l-0.3-12.6
		c2.7-0.7,5.3-1.4,7.8-2.2c1.5-0.5,3-1,4.5-1.6c8.3-3.2,15.3-7.2,22.6-12l0,0.1l4.1,3.9l12.4,11.8c3.7,3.5,9.4,3.3,12.9-0.3
		l27.2-28.7c3.5-3.7,3.3-9.5-0.3-12.9L317,265.2c6.5-11.3,11-24,13.6-36h0.1l22.7-0.6c5.1-0.1,10.3-4.1,10.2-9.1L362.5,179.9z
		 M281.3,279.9c-7.9,7.3-16.8,13.3-26.7,17.9c-1.5,0.7-3,1.3-4.5,2c-12,4.9-25.1,7.6-38.9,7.6c-13,0-25.5-2.4-37-6.8
		c-1.5-0.6-3-1.2-4.5-1.9c-9.8-4.3-18.7-10.1-26.7-17c-21.5-18.9-35-46.6-35-77.5c0-57,46.2-103.2,103.2-103.2
		c57,0,103.2,46.2,103.2,103.2C314.5,234.1,301.7,261.1,281.3,279.9z"/>
</g>
<circle id="XMLID_8_" class="st3" cx="212.2" cy="155" r="31.2"/>
<path id="XMLID_5_" class="st3" d="M281.4,225.1c-6.2-35.6-37.9-34.4-37.9-34.4v0.1h-62.4v-0.1c0,0-31.7-1.2-37.9,34.4v3.2
	c0,0.1,0,0.1,0,0.2v53.1c7.9,7,16.9,12.7,26.7,17v-61.8h4.5v63.7c11.5,4.4,23.9,6.8,37,6.8c13.8,0,26.9-2.7,38.9-7.6v-62.9h4.5v60.9
	c9.8-4.6,18.8-10.6,26.7-17.9v-43.1h0.1V225.1z"/>
<g id="XMLID_2_">
	<polygon id="XMLID_4_" class="st4" points="216.3,218.2 212,218.2 207.8,218.2 203.1,281.9 212,290.8 221,281.9 	"/>
	<polygon id="XMLID_3_" class="st4" points="212,199.5 204.7,205.1 207.5,214.2 212,214.2 216.5,214.2 219.4,205.1 	"/>
</g>
</svg>
