<?xml version="1.0" encoding="utf-8"?>
<!-- Generator: Adobe Illustrator 19.0.0, SVG Export Plug-In . SVG Version: 6.00 Build 0)  -->
<svg version="1.1" id="Layer_1" xmlns="http://www.w3.org/2000/svg" xmlns:xlink="http://www.w3.org/1999/xlink" x="0px" y="0px"
	 viewBox="0 0 724.3 1091.1" style="enable-background:new 0 0 724.3 1091.1;" xml:space="preserve">
<style type="text/css">
	.st0{fill:#EEEEEE;}
	.st1{fill:#F5F5F5;}
</style>
<rect id="XMLID_16_" x="0.2" y="-17.6" class="st0" width="732.8" height="1108.7"/>
<path id="XMLID_2_" class="st1" d="M0.4,312.2c0-108.2,0-216.4-0.2-324.5c0-3.5,1.2-4.2,7.2-4.2c44.7,0.2,89.6,0.1,134.3,0.1
	c0.2,2.1,0.2,4.4,0.7,6.5c6,21.7,12.4,43.6,18,65.3c20.8,78.3,41.5,156.6,62.2,234.8c11,41.6,21.9,83.4,33,125
	c0.5,1.8-0.2,4,4.2,5.6c1.8-3,0.7-5.5,0-7.9c-11.7-46.5-24.9-93-36-139.5c-5.8-24.5-13.6-48.8-20-73.3
	c-9.7-37.4-18.9-74.8-28.8-112.3c-5.7-21.4-12.2-42.8-18.4-64.2c-3.9-13.4-7.8-26.8-11.7-40.2c23,0,45.9,0,68.9,0
	c9.7,10.3,21,19.9,32,29.8c31.3,28.1,62.4,56.2,93.5,84.4c29.1,26.4,58.1,53.1,87.3,79.6c20.1,18.3,38.9,37,59,55.3
	c42.6,38.2,216.1,199,230.7,212.2c4.8,4.2,7.9,9.2,15.4,12.2c0,93.9,0,187.8,0,281.7c-2.1-0.7-4.2-1.2-6.2-2
	c-46.3-18.5-92.4-36.9-138.7-55.3c-66.6-26.5-133-53.1-199.8-79.5c-26.5-10.5-53.2-20.6-79.8-30.9c-4.8-1.8-7.2-4.2-8.1-7.5
	c-1.9-8.3-3.4-16.5-5.8-24.7c-9.4-30.9-17-62.1-24.9-93.2c-1.8-6.7-3.7-13.5-5.7-20.2c-1.2,0.1-2.3,0.2-3.5,0.3
	c8.8,45.9,23.3,91.5,32.9,137.5c-2.8-1.3-4.6-2.9-6.4-4.4c-33.9-29.4-67.8-58.9-101.9-88.3C122.8,417.8,61.5,365,0.4,312.2z"/>
<path id="XMLID_21_" class="st1" d="M0.4,492.8c20.3,20.5,40.8,40.9,61.1,61.4c41.5,42.3,82.9,84.6,124.2,127
	c18.7,19.3,37.1,38.7,56,57.9c41.5,42,138.3,139.4,140.6,142c12.5,13.1,25.1,26.1,37.3,39.3c16.3,17.6,34.1,34.5,51.2,51.7
	c36,36.2,72.3,72.5,108.3,108.7c1.8,1.7,3.9,3.4,5.8,5.1c-91.3,0-182.5,0-273.8,0c-3.7-1.9-7.2-3.9-11.1-5.8
	c-63.9-32.9-127.7-65.8-191.8-98.6c-6.5-3.4-10.2-6.9-11.5-11.9c-9.2-34.4-18.5-68.8-28.6-103.2C49.6,803.5,30.9,740.7,12.2,678
	C8.3,665.2,5.7,652.4,0,639.9C0.4,590.8,0.4,541.8,0.4,492.8z"/>
<path id="XMLID_1_" class="st1" d="M302.4,1085.8c-88.3,0-176.7,0-265,0c-12.4-13.3-24.7-26.5-37.1-39.8c0-38.1,0-76.2,0-114.3
	c36,18,72.3,35.8,107.9,54C173.3,1018.9,237.8,1052.4,302.4,1085.8z"/>
<path id="XMLID_20_" class="st1" d="M0.4,318.3c35.2,30.5,70.5,61.1,105.6,91.6c1.9,1.6,61.8,103.7,58.1,104
	c-5.1,0.4-37.8-14.5-41.7-16.1c-28.6-11.6-57.2-23.3-86-34.9c-9.2-3.7-18.2-7.5-27.4-11.1c-2.6-1-4.9-2.6-8.7-1.9
	C0.4,406.1,0.4,362.2,0.4,318.3z"/>
<path id="XMLID_19_" class="st1" d="M0.4,453c28.3,11.3,56.5,22.7,85,33.9c13.2,5.3,26.7,10.6,39.9,15.9c5.1,2,9.7,3.9,5.8,8.6
	c-3.2,3.8,15.7,27.8,17.3,28.1c9.5,2,78.8,107.5,76.5,107.9c-6.7,1-94.2-36.9-98.2-36.4c-3.7,0.4-4.8-2.1-6.4-3.7
	C82.9,569.5,45.6,531.7,8.1,493.9c-1.9-2-3-4.6-7.6-5.2C0.4,476.8,0.4,465,0.4,453z"/>
<path id="XMLID_18_" class="st1" d="M0.4,875.5c0-72.2,0-144.2,0-216.4c3.7,11.7,9,23.4,10.1,35.1c0.4,4.3,0.4,7.7,4.1,11.6
	c3.2,3.4,2.8,7.9,3.5,11.9c3.7,17.9,13.1,35.2,15.7,53.2c0.9,5.6,3.2,11,4.8,16.5c1.6,5.5,3.4,11,4.9,16.5
	c1.6,5.7,6.9,12.1,3.9,16.9c-3.9,6.2,2.3,9.5,5.1,13.9c0.2,0.3,0.2,0.7,0.4,1c1.4,10.8,5.1,21.4,8.5,32c0.5,1.7,0.9,3.5-0.9,5
	c-3.9,3.4-2.5,7-2.6,10.8c-0.4,4.7,12,41.2,8.3,45.8c-0.9,1-28.6-26.9-33.7-27.7c-1.8-0.2-3.5-0.7-4.2-1.7
	C23,893,12.2,887.8,7.4,880.4C6.2,878.5,4.4,876.4,0.4,875.5z"/>
<path id="XMLID_14_" class="st1" d="M738.6,54.7c-9.7-0.5-139.6-67.6-147.2-68.6c-4.9-0.6-4.4-4.3-5.7-6.7
	c48.2,0,96.6,0.3,144.9,0.2c4.4,0,6.7-3.7,6.7-1.1C740.5-13.7,738.6,47.5,738.6,54.7z"/>
</svg>
