<?xml version="1.0" encoding="utf-8"?>
<!-- Generator: Adobe Illustrator 19.0.0, SVG Export Plug-In . SVG Version: 6.00 Build 0)  -->
<svg version="1.1" id="Layer_1" xmlns="http://www.w3.org/2000/svg" xmlns:xlink="http://www.w3.org/1999/xlink" x="0px" y="0px"
	 viewBox="0 0 411.7 411.7" style="enable-background:new 0 0 411.7 411.7;" xml:space="preserve">
<style type="text/css">
	.st0{fill:#F07D24;}
	.st1{fill:#CCDFA2;}
	.st2{fill:#1A344C;}
</style>
<circle id="XMLID_8_" class="st0" cx="205.9" cy="205.9" r="205.9"/>
<path id="XMLID_7_" class="st1" d="M161.6,203.8c-7,2.8-13.3,6.8-19,11.9c-6.1,5.5-11.3,12.5-15.4,20.3c-0.6,1.1-1.2,2.7-1.7,3.7
	H67.3l6.1-36.2c3.1-21.1,14.5-37.3,32-43.5c3.9,3.7,8.4,6.5,13.4,8.5c5.2,2.1,10.8,3.2,16.5,3.2c5.7,0,11.2-1.1,16.4-3.1
	c-0.2,1.7-0.3,3.5-0.3,5.3c0,4,0.5,8,1.4,11.8c0.9,3.8,2.3,7.4,4.1,10.9C158.3,199.1,159.9,201.5,161.6,203.8z"/>
<path id="XMLID_6_" class="st1" d="M170.4,131.2c0,1.2-0.1,2.4-0.2,3.6c-0.9,0.8-1.9,1.6-2.8,2.5c-5,4.7-8.9,10.3-11.6,16.4
	c-0.9,2-1.6,4-2.2,6c-5.3,3.1-11.5,4.8-18.2,4.8c-8.3,0-15.9-2.7-21.9-7.3c-8-6.1-13.1-15.5-13.1-26c0-18.4,15.7-33.3,35-33.3
	S170.4,112.8,170.4,131.2z"/>
<path id="XMLID_5_" class="st1" d="M344.4,239.7h-58c-0.6-1-1.2-2.8-1.9-4c-7.9-14.9-19.7-26-34.3-31.9c1.7-2.3,3.2-4.7,4.4-7.2
	c1.8-3.5,3.2-7.2,4.1-10.9c1-3.9,1.4-7.9,1.4-11.9c0-1.8-0.1-3.5-0.3-5.3c5.2,2.1,10.7,3.1,16.4,3.1c5.7,0,11.3-1.1,16.5-3.2
	c5-2,9.5-4.9,13.4-8.6c17.4,6.1,28.8,22.5,32,43.6L344.4,239.7z"/>
<path id="XMLID_4_" class="st1" d="M311.4,131.2c0,10.5-5.1,19.9-13.1,26c-6,4.6-13.6,7.3-21.9,7.3c-6.7,0-12.9-1.8-18.2-4.8
	c-0.6-2-1.4-4.1-2.2-6c-2.7-6.2-6.7-11.7-11.6-16.4c-0.9-0.9-1.8-1.7-2.8-2.5c-0.1-1.2-0.2-2.4-0.2-3.6c0-18.4,15.7-33.3,35-33.3
	C295.7,97.9,311.4,112.8,311.4,131.2z"/>
<path id="XMLID_3_" class="st2" d="M292.9,314.7h-174l7.8-46.8c1.5-9.8,4.3-19.2,8.4-27c0-0.1,0.1-0.2,0.1-0.3
	c7.2-13.5,18.2-23.7,32.3-28.7c0,0,0-0.1,0-0.1c1,0.9,2,1.8,3,2.6c0.1,0.1,0.2,0.2,0.4,0.3c0.1,0.1,0.3,0.2,0.4,0.3
	c0.2,0.1,0.3,0.2,0.5,0.4c0.2,0.1,0.3,0.3,0.5,0.4c0.2,0.1,0.3,0.2,0.5,0.4c3.6,2.6,7.5,4.8,11.7,6.5c0.1,0,0.1,0,0.2,0.1
	c2,0.8,4,1.5,6.1,2c0.2,0,0.3,0.1,0.5,0.1c0.2,0,0.3,0.1,0.5,0.1c0.1,0,0.2,0,0.3,0.1c0.1,0,0.2,0,0.3,0.1c0.2,0,0.4,0.1,0.5,0.1
	c0,0,0.1,0,0.1,0c2.7,0.6,5.4,1.3,8.2,1.3c0,0,0,0,0,0c1.6,0,3.2,0.2,4.8,0.2c1.6,0,3.2-0.1,4.8-0.2c0,0,0,0,0,0
	c2.3-0.2,4.5-0.5,6.8-1c0,0,0,0,0,0c0.5-0.1,1-0.2,1.5-0.3c0.5-0.1,1-0.3,1.5-0.4c0.3-0.1,0.6-0.2,0.9-0.2c0.1,0,0.1,0,0.2-0.1
	c0.8-0.2,1.6-0.5,2.4-0.8c0.5-0.2,1-0.3,1.5-0.5c0.5-0.2,1-0.4,1.5-0.6c6.4-2.6,12.2-6.3,17.2-11l0,0c0,0,0,0,0,0
	c14.2,5,25.2,15.1,32.4,28.8c4.1,7.8,7,17.5,8.4,27.3L292.9,314.7z"/>
<path id="XMLID_2_" class="st2" d="M250.6,173.8c0,13.4-6.5,25.4-16.7,33.2c-6.1,4.7-13.5,7.8-21.6,9c-2.1,0.3-4.2,0.4-6.4,0.4
	s-4.3-0.1-6.4-0.4c-8.1-1.1-15.5-4.3-21.6-9c-10.2-7.8-16.7-19.8-16.7-33.2c0-4.1,0.6-8,1.7-11.7c5.3-17.8,22.6-30.9,43.1-30.9
	s37.7,13.1,43.1,30.9C250,165.8,250.6,169.8,250.6,173.8z"/>
</svg>
