<?xml version="1.0" encoding="utf-8"?>
<!-- Generator: Adobe Illustrator 19.0.0, SVG Export Plug-In . SVG Version: 6.00 Build 0)  -->
<svg version="1.1" id="Layer_1" xmlns="http://www.w3.org/2000/svg" xmlns:xlink="http://www.w3.org/1999/xlink" x="0px" y="0px"
	 viewBox="0 0 135.5 162" style="enable-background:new 0 0 135.5 162;" xml:space="preserve">
<style type="text/css">
	.st0{fill:#5B147C;}
	.st1{fill:#FFFFFF;}
</style>
<path class="st0" d="M135.3,162c-45.3,0-90.1,0-134.9,0c-2-13.6,2.5-22.6,14.1-28.4c5.3,15.6,16.5,23.2,33.2,25
	c-1.7-6.8-7.4-12.4-2.5-19.4c27,17.4,54.5,18.1,83.3,1.3c-4.5-2.4-8.8-5.2-13.5-7.1c-4.3-1.6-9-2.4-13.5-3.2
	c-12.5-2.2-21.9-7.6-23-20.1c-7.4,0-14.1,0-19.9,0c-3,5.9-5.6,13.1-10,18.9c-5.9,7.8-10.5,15.2-5.8,25.3
	c-18.2-1.4-30.5-17.8-23-33.1c8.6-17.7,7.1-33.1-0.1-50.8C7.6,40.6,24.7,7.7,53.4,1.3c27.9-6.2,51.9,11.1,56.1,41.1
	c4.1,29.5-3.5,55.6-25.6,78.4c4.8,2.3,8.9,4.8,13.3,6.2c5.9,1.9,12.1,2.7,18,4.4C130.6,135.7,136.8,145.2,135.3,162z M94,40.3
	c-0.9,0-1.7-0.1-2.6-0.1c-9.2,16-25.6,13.6-40,16.2c4-2.7,8-5.3,13-8.6c-9.1,1.9-16.6,3.1-23.9,5.2c-1.8,0.5-3.9,3.7-4,5.7
	C36,71.3,40,82.4,48.7,91.8c0.4,0.5,0.6,1.2,1.1,2.2c-1.9-0.4-3.4-0.7-4.9-1c2.5,4.1,5.4,7.3,8.8,9.9c11.8,8.8,17.2,8.6,28.7-0.6
	c15.3-12.1,21.6-27.8,17.8-46.9C99.2,50.1,96.1,45.3,94,40.3z"/>
<path class="st1" d="M94,40.3c2.2,5,5.3,9.8,6.3,15.1c3.8,19.1-2.5,34.8-17.8,46.9c-11.6,9.1-16.9,9.3-28.7,0.6
	c-3.4-2.5-6.4-5.7-8.8-9.9c1.5,0.3,3,0.6,4.9,1c-0.5-1-0.7-1.7-1.1-2.2C40,82.4,36,71.3,36.6,58.6c0.1-2,2.2-5.2,4-5.7
	c7.3-2.1,14.8-3.3,23.9-5.2c-5,3.3-9,5.9-13,8.6c14.4-2.6,30.8-0.2,40-16.2C92.3,40.2,93.1,40.2,94,40.3z"/>
</svg>
