<?xml version="1.0" encoding="utf-8"?>
<!-- Generator: Adobe Illustrator 19.0.0, SVG Export Plug-In . SVG Version: 6.00 Build 0)  -->
<svg version="1.1" id="Layer_1" xmlns="http://www.w3.org/2000/svg" xmlns:xlink="http://www.w3.org/1999/xlink" x="0px" y="0px"
	 viewBox="-315 432 135.5 195" style="enable-background:new -315 432 135.5 195;" xml:space="preserve">
<style type="text/css">
	.st0{fill:#FFFFFF;}
	.st1{fill:#5B147C;}
	.st2{font-family:'ArialMT';}
	.st3{font-size:24px;}
	.st4{letter-spacing:1;}
</style>
<path class="st0" d="M-303.5,567.3c0.5-0.3,9.4-5.3,9.4-5.3l25.3-14.7l15.7-14.7h17.7l3.7,12.3l-1,7.6l4.2,4.1l13.7,3.1l15,3.6
	l11.3,5.3l2.8,8.3c0,0-7,9.3-8,9.3s-44,4.7-47.3,4.3c-3.3-0.3-36.2,2-37.4,2s-31.9-4-31.3-5C-309.1,586.7-303.5,567.3-303.5,567.3z"
	/>
<text transform="matrix(1 0 0 1 -295.765 619.5957)" class="st1 st2 st3 st4">KVINNE</text>
<path class="st0" d="M-179.7,594c1.5-16.8-4.8-26.3-20.1-30.6c-5.9-1.7-12.1-2.5-18-4.4c-4.4-1.4-8.5-3.9-13.3-6.2
	c22.1-22.8,29.7-48.9,25.6-78.4c-4.2-29.9-28.1-47.2-56-41c-28.8,6.4-45.8,39.3-33.6,69.2c7.2,17.7,8.7,33.1,0.1,50.8
	c-7.4,15.3,4.8,31.7,23,33c-4.7-10.1-0.1-17.5,5.8-25.3c4.4-5.8,6.9-12.9,9.9-18.8c5.8,0,12.4,0,19.9,0c1.1,12.5,10.5,17.9,23,20.1
	c4.6,0.8,9.2,1.5,13.5,3.2c4.7,1.8,9,4.7,13.5,7.1c-28.8,16.8-56.2,16.1-83.2-1.3c-5,7,0.8,12.7,2.5,19.4
	c-16.7-1.7-27.9-9.4-33.2-25c-11.6,5.8-16.1,14.7-14.1,28.4C-269.8,594-225.1,594-179.7,594z"/>
<path class="st1" d="M-179.7,594c-45.3,0-90.1,0-134.8,0c-2-13.6,2.5-22.6,14.1-28.4c5.3,15.6,16.5,23.2,33.2,25
	c-1.7-6.7-7.4-12.4-2.5-19.4c27,17.4,54.4,18.1,83.2,1.3c-4.5-2.4-8.8-5.2-13.5-7.1c-4.3-1.6-8.9-2.4-13.5-3.2
	c-12.5-2.2-21.9-7.6-23-20.1c-8,2.8-11.2,3.9-19.9,0c-3,5.9-5.6,13.1-9.9,18.8c-5.9,7.8-10.5,15.2-5.8,25.3
	c-18.2-1.4-30.5-17.8-23-33c8.6-17.7,7.1-33.1-0.1-50.8c-12.1-30,4.9-62.9,33.6-69.2c27.9-6.2,51.8,11.1,56,41
	c4.1,29.5-3.4,55.6-25.6,78.4c4.8,2.3,8.9,4.8,13.3,6.2c5.9,1.9,12,2.7,18,4.4C-184.5,567.7-178.2,577.2-179.7,594z M-221.1,472.3
	c-0.9,0-1.7-0.1-2.6-0.1c-9.2,16-25.5,13.6-39.9,16.2c4-2.7,8-5.3,13-8.6c-9,1.9-16.6,3.1-23.9,5.2c-1.8,0.5-3.9,3.7-4,5.7
	c-0.6,12.7,3.4,23.8,12.1,33.1c0.4,0.5,0.6,1.2,1.1,2.2c-1.9-0.4-3.4-0.7-4.9-1c2.5,4.1,5.4,7.3,8.8,9.9c11.8,8.8,17.2,8.6,28.7-0.6
	c15.3-12.1,21.6-27.8,17.8-46.9C-215.8,482.1-218.9,477.3-221.1,472.3z"/>
<path class="st0" d="M-221.1,472.3c2.2,5,5.3,9.8,6.3,15.1c3.8,19.1-2.5,34.8-17.8,46.9c-11.6,9.1-16.9,9.3-28.7,0.6
	c-3.4-2.5-6.4-5.7-8.8-9.9c1.5,0.3,3,0.6,4.9,1c-0.5-1-0.7-1.7-1.1-2.2c-8.7-9.3-12.7-20.5-12.1-33.1c0.1-2,2.2-5.2,4-5.7
	c7.3-2.1,14.8-3.3,23.9-5.2c-5,3.3-9,5.9-13,8.6c14.4-2.6,30.7-0.2,39.9-16.2C-222.8,472.2-221.9,472.3-221.1,472.3z"/>
</svg>
