<?xml version="1.0" encoding="utf-8"?>
<!-- Generator: Adobe Illustrator 19.0.0, SVG Export Plug-In . SVG Version: 6.00 Build 0)  -->
<svg version="1.1" id="Layer_1" xmlns="http://www.w3.org/2000/svg" xmlns:xlink="http://www.w3.org/1999/xlink" x="0px" y="0px"
	 viewBox="0 0 411.7 411.7" style="enable-background:new 0 0 411.7 411.7;" xml:space="preserve">
<style type="text/css">
	.st0{fill:#F07D24;}
	.st1{fill:#CBDFA1;}
	.st2{fill:#323D4D;}
	.st3{fill:#FFFFFF;}
</style>
<path id="XMLID_14_" class="st0" d="M0,205.9C0,92.2,92.2,0,205.9,0s205.9,92.2,205.9,205.9s-92.2,205.9-205.9,205.9"/>
<path id="XMLID_13_" class="st0" d="M205.9,411.7C92.2,411.7,0,319.6,0,205.9"/>
<path id="XMLID_12_" class="st1" d="M236.9,119.5h-58.7c-1.9,0-3.5-1.6-3.5-3.5v-0.6c0-1.9,1.6-3.5,3.5-3.5h58.7
	c1.9,0,3.5,1.6,3.5,3.5v0.6C240.4,117.9,238.8,119.5,236.9,119.5z"/>
<path id="XMLID_11_" class="st1" d="M171.8,86c0,0,6.7,13.1,9.6,22.2h50.9c0,0-6.9-27.8,19.8-36.7c0,0-11.7,3.7-25.6,1.7
	c-2.5-0.4-11.5-5.3-14.1-6.8c-5-3-4-5.4-14.9-5.6c-11.4-0.2-8.1,8-7.4,9.4c0.1,0.3,0.2,0.6,0.4,0.9c0.5,1.3,1.7,4.4,2.8,8
	c1.4,4.7-0.2,6.3-0.2,6.3s-2.8,2.5-12.3,1.2c-9.5-1.3-13.5-8-13.5-8L171.8,86z"/>
<path id="XMLID_8_" class="st2" d="M305.2,253c-1.1-9.8-5-31.8-7.9-38.5c-0.3-0.7-0.7-1.4-1-2.1c-2.4-6.5-13.6-35.2-27.8-54
	c-16.1-21.2-21.9-30.2-28.3-35.2h-65c0,0-29.5,28.1-47.6,67.4c-1.3,2.8-2.4,5.8-3.3,8.8c-1.3,4.1-4.5,10.8-6.7,18.6
	c-4.2,14.6-7.5,32.7-6.9,40.8c0,0,0,8.4,2.8,18.3c3.3,11.3,10.1,24.9,20.5,34.4c21.4,19.5,20.3,16.7,40,24.5
	c29.7,11.8,68.5-0.4,68.5-0.4s27.9-9.2,44.7-30.7c15.3-19.5,16.2-28.8,17.9-42.5C305.6,259.2,305.6,256.1,305.2,253z M208.4,289
	c-27.4,0-49.7-22.2-49.7-49.7s22.2-49.7,49.7-49.7s49.7,22.2,49.7,49.7S235.8,289,208.4,289z"/>
<g id="XMLID_2_">
	<rect id="XMLID_7_" x="201.9" y="198.2" class="st3" width="3.7" height="82.3"/>
	<rect id="XMLID_6_" x="208.7" y="198.2" class="st3" width="3.7" height="82.3"/>
	<g id="XMLID_3_">
		<path id="XMLID_4_" class="st3" d="M191.1,258.4c2,2.2,4.5,4.2,7.4,5.9c2.9,1.7,6.3,2.5,10.1,2.5c4.4,0,7.8-1,10.4-3.1
			c2.6-2,3.9-5,3.9-8.8c0-3.7-1.2-6.5-3.6-8.3c-2.4-1.8-6-3.6-10.7-5.4l-3.7-1.5c-5.1-1.8-9.4-4.2-12.8-7.3
			c-3.4-3.1-5.1-7.1-5.1-12.1c0-5.1,2-9.2,5.9-12.2c3.9-3,8.9-4.5,14.9-4.5c4.6,0,8.4,0.7,11.5,2.1c3.1,1.4,5.9,3.3,8.4,5.9
			l-4.2,4.8c-1.8-1.7-4-3.2-6.4-4.6c-2.4-1.4-5.5-2.1-9.1-2.1c-3.9,0-7.1,0.9-9.7,2.8c-2.6,1.8-3.9,4.2-3.9,7.1
			c0,3.5,1.5,6.3,4.4,8.3c2.9,2,5.9,3.6,8.9,4.7l6.3,2.6c6.5,2.4,10.9,5,13.2,7.8c2.3,2.8,3.5,6.4,3.5,11c0,6-2.1,10.7-6.4,14
			c-4.2,3.3-9.5,4.9-15.7,4.9c-2.5,0-4.8-0.2-6.9-0.5c-2.1-0.4-4.1-0.9-5.9-1.7c-1.9-0.8-3.6-1.7-5.2-2.9c-1.6-1.2-3.2-2.6-4.8-4.3
			L191.1,258.4z"/>
	</g>
</g>
</svg>
