<?xml version="1.0" encoding="utf-8"?>
<!-- Generator: Adobe Illustrator 19.0.0, SVG Export Plug-In . SVG Version: 6.00 Build 0)  -->
<svg version="1.1" id="Layer_1" xmlns="http://www.w3.org/2000/svg" xmlns:xlink="http://www.w3.org/1999/xlink" x="0px" y="0px"
	 viewBox="0 0 411.7 411.7" style="enable-background:new 0 0 411.7 411.7;" xml:space="preserve">
<style type="text/css">
	.st0{fill:#2AA9E0;}
	.st1{fill:#B9CF37;}
	.st2{fill:#304358;}
</style>
<circle id="XMLID_11_" class="st0" cx="205.9" cy="205.9" r="205.9"/>
<path id="XMLID_10_" class="st1" d="M205.8,88.3c-0.8,0-1.6,0.5-2.6,1.1c-10,6.5-19.9,13.3-30.3,19.1
	c-20.9,11.7-42.9,20.6-66.2,25.6c-1.7,0.4-2.8,0.8-2.9,3.2c-0.5,19.2,0.6,38,4.5,56.7c1.7,8.3,4,17.1,6.6,24.1h90.1L205.8,88.3z"/>
<path id="XMLID_9_" class="st1" d="M204.2,335c30.7-20.5,55.1-47.2,73.6-79.6c6.8-12,12.3-24.2,16.6-37.2h-89.5L204.2,335z"/>
<path id="XMLID_6_" class="st2" d="M305.7,137.1c-0.1-2.5-1.1-3.3-3.1-3.7c-34.3-7.8-65.5-23-94.2-43.9c-1-0.7-1.8-1-2.6-1l-0.8,130
	h89.5C303.1,192.6,306.7,165.4,305.7,137.1z"/>
<path id="XMLID_3_" class="st2" d="M114.9,218.5c8.9,26.8,22.8,50.9,40.9,72.8c14.1,16.9,30,31.6,48.4,43.9l0.7-116.7H114.9z"/>
</svg>
