<?xml version="1.0" encoding="utf-8"?>
<!-- Generator: Adobe Illustrator 19.0.0, SVG Export Plug-In . SVG Version: 6.00 Build 0)  -->
<svg version="1.1" id="Layer_1" xmlns="http://www.w3.org/2000/svg" xmlns:xlink="http://www.w3.org/1999/xlink" x="0px" y="0px"
	 viewBox="0 0 411.7 411.7" style="enable-background:new 0 0 411.7 411.7;" xml:space="preserve">
<style type="text/css">
	.st0{fill:#CCDFA2;}
	.st1{fill:#3F4D52;}
	.st2{fill:#364A5E;}
	.st3{fill:#88BA42;}
</style>
<circle id="XMLID_39_" class="st0" cx="205.9" cy="205.9" r="205.9"/>
<path id="XMLID_38_" class="st1" d="M163.1,69.1c-1,0.5-1.4,1.6-1,2.5L262,266.4c0.4,0.9,1.6,1.2,2.6,0.7l0,0c1-0.5,1.4-1.6,1-2.5
	L165.6,69.7C165.2,68.9,164,68.6,163.1,69.1L163.1,69.1z"/>
<path id="XMLID_37_" class="st1" d="M159.2,307.8h43.3v-26.7c0-6,4.9-10.9,10.9-10.9s10.9,4.9,10.9,10.9v26.7h37.6
	c10.2,0,18.5,8.3,18.5,18.5c0,0.5,0,1-0.1,1.5H140.8c0-0.5-0.1-1-0.1-1.5C140.7,316,149,307.8,159.2,307.8z"/>
<path id="XMLID_36_" class="st1" d="M164.3,62.1L164.3,62.1c1.1-0.5,2.4-0.8,3.7-0.8c5,0,9,4,9,9c0,3.7-2.2,6.8-5.4,8.2
	c-48.1,25.1-67.1,84.2-42.4,132.6c24.6,48.2,83.3,67.7,131.7,43.9c1.4-0.9,3.1-1.4,4.9-1.4c5,0,9.1,4.1,9.1,9.1c0,4-2.5,7.3-6.1,8.6
	c-57.2,28-126.5,5-155.6-51.9C83.9,161.9,106.8,91.5,164.3,62.1z"/>
<path id="XMLID_35_" class="st2" d="M125.5,165.8c0,6.9,0.8,13.7,2.2,20.2c1.7,7.7,4.4,15.1,7.9,22c5.6,11,13.4,20.7,22.7,28.7
	c0.2,0.2,0.5,0.4,0.7,0.6c4,3.3,8.2,6.3,12.7,8.9c13.7,8,29.6,12.5,46.6,12.5c16.2,0,31.5-4.2,44.7-11.5c0.7-0.4,1.3-0.7,2-1.1
	c24.3-14.1,41.5-38.9,45.4-68c0.5-4,0.8-8.1,0.8-12.3c0-6.9-0.8-13.7-2.2-20.2c-0.1-0.3-0.1-0.5-0.2-0.8c-0.7-3.1-1.6-6.2-2.6-9.2
	c-0.3-0.8-0.5-1.5-0.8-2.2c-2.5-6.7-5.7-13-9.6-18.8c-1.1-1.7-2.3-3.3-3.5-4.9c-3.8-5-8-9.5-12.7-13.6c-0.3-0.3-0.7-0.6-1-0.9
	c-1.1-1-2.3-1.9-3.5-2.8c-8.4-6.6-18.1-11.7-28.5-15c-0.3-0.1-0.7-0.2-1-0.3c-8.7-2.7-17.9-4.1-27.4-4.1c-2.1,0-4.2,0.1-6.3,0.2
	c-2.4,0.2-4.9,0.4-7.2,0.8c-8.5,1.2-16.6,3.6-24.2,7c-0.5,0.2-1,0.4-1.4,0.7c-23.7,11.1-41.9,31.8-49.6,57.2
	c-1.2,3.8-2.1,7.8-2.7,11.8c-0.1,0.3-0.1,0.7-0.2,1C125.9,156.2,125.5,160.9,125.5,165.8z"/>
<g id="XMLID_30_">
	<path id="XMLID_34_" class="st3" d="M129.5,138.8c7.7-25.4,25.9-46.1,49.6-57.2c3.2-0.1,6.4,0.5,9.3,2.6c4.4,3.3,2.8,9.5,3.1,14.3
		c5.7,0.3,15.5-2.4,19,2.7c1.1,1.6,1.3,3.1,2.9,4.6c1.6,1.6,2.6,2.5,4,4.4c0.8,1.1,1.2,2.1,2.5,2.4c1.2,5.4-10,2.9-13.2,2.9
		c-3.3,0-9.1,1.7-12,0.3c-1.7-0.8-2-3.7-3.5-4.1c-2.1-0.6-2.9,2.6-3.8,3.8c-1.9,2.6-3.7,3.4-6.8,3.5c-2.2,0.1-4.6-0.3-6.7,0
		c-1.6,0.2-2.6,1.1-3.9,1.7c1.5,0.7,2.3,3,4.1,3.5c2.6,0.8,6.6,0.6,9.4,0.7c3.7,0.1,3.4-1.7,5.7-3.7c2.7-2.3,4.5-2.2,8.1-2.4
		c5.6-0.3,16.1-1.3,20.7,2.3c2.2,1.8,1.4,4.4,3.5,6.1c3.4,2.8,10.1,2.2,12.5,6.2c2.1,3.5,0.5,10.9,0,14.4c-0.7,5.3-0.6,9.9-6.1,12
		c-5.1,1.9-11.4,2.3-16.7,3.3c-2.9,0.6-6.5,0-7.4,3.1c-0.5,1.5,0,3.7-0.3,5.3c-0.7,3.5-3.1,5-5.6,7.4c-2.6,2.4-2.3,4-2.3,7.8
		c0,5.6-0.5,8.8-2.7,13.9c-0.9,2.2-1.4,4.8-1.5,7.3c0,4.3,1.2,7.8,4.4,10.2c3.9,3,7.6,6.4,4.9,11.2c-3.3,2.4-10,0.6-13.1-1.3
		c-5.2-3.3-9.2-5.3-15.3-6.5c-11.1-2.2-4.6-13-8.6-20.5c-1.2-2.2-3.5-3.3-4.6-5.4c-1.4-2.5-1.5-5.7-1.5-8.5c0-4.9,0.9-9.7,0.9-14.6
		c0-4.6-1.2-4.2-4.1-6.2c-3.4-2.4-2.9-5.9-2.9-10c0-1.1,0-2.3,0-3.4c2.1-0.8,4.2-1.5,6.4-2.3c1.3-0.5,4.3-1,5.3-1.9
		c2.9-2.8,4.2-11.9,3.8-15.7c-7.2-1.6-6.2,12-13.4,12.3c-7.9,0.3-8.6-4.5-8.3-10.8c5.4-0.3,6.7-0.2,6.4-6.2
		c-2.7-0.5-5.1,1.4-7.1,2.9c-1.3,1-3.4,1.4-4.6,2.4c-3,2.4-1.3,7.2-3.8,10.2c-1.2,0.3-2.1,1.1-2.3,2.3c-2.8,1.5-4.2,6.7-6.7,9.1
		c0-1.5-0.2-3-0.4-4.5C127.4,146.5,128.4,142.6,129.5,138.8z"/>
	<path id="XMLID_33_" class="st3" d="M259.6,233.5c-0.7-4.4,4.5-7,4.9-10.8c0.6-4.6-3.7-7.1-5.1-10.8c-0.8-2.1-0.2-5.1-0.5-7.3
		c-2.7-0.5-3.6-0.9-5.5-2.7c-2.3-2.3-3.9-2.5-6.6-4c-4.6-2.7-7.5-6.8-6.9-12.4c0.6-5.7,2.5-12.9,8.1-15.5c2.7-1.2,3.6-0.2,4.5-3.1
		c0.6-1.9,0.2-4.1,0.6-6c3-1.9,6.4-4.2,9.6-5.9c3.3-1.8,7.6-4.6,11.5-5.2c1.9-0.3,3.6-0.1,5.2,0.6c0.5,0.2,0.4,1.2,1.1,1.4
		c0.8,0.3,2.5-0.1,3.3-0.3c4.1-1.1,9.9-5.9,10.8-10c0.3-1.3,0-2.8,0.6-4.1c0.4-0.9,1.7-1.6,2.3-2.6c1.3-2.1,2.2-5.2-1.1-6.5
		c-2.9-1.1-3.8,1.1-6.2,1.8c-3.4,1.1-6.9-0.4-9.9-1.6c-0.1-2.6-3.1-5.8-4.9-7.5c-2.5-2.2-5.6-3.5-8.3-5.4c-1.8-1.3-3.4-2.7-5.3-3.8
		c-3-1.6-15.5-3.6-11-9c1.7-2,4.7-3.2,6.1-5.9c0.6-1,0.6-2,1.1-3c1.9-4.4,4.7-3.8,8.9-2.4c3.7,1.3,5.1,4.9,9.6,4.2
		c0.8-0.1,1.5-0.3,2.2-0.5c0.3,0.3,0.7,0.6,1,0.9c4.7,4.1,8.9,8.7,12.7,13.6c1.2,1.6,2.4,3.2,3.5,4.9c3.9,5.8,7.1,12.2,9.6,18.8
		c0.3,0.7,0.5,1.5,0.8,2.2c1,3,1.9,6.1,2.6,9.2c0.1,0.3,0.1,0.5,0.2,0.8c-1.9,0.7-3.5-1.8-5.8-0.6c-2.4,1.2-2.8,6.5-5,8.5
		c-3.5,3.2-10-0.1-12.6,5c-3.6,7,2.5,19.8-4.2,25.1c-2.8,2.2-3.5,1.3-3.2,5.8c0.3,3.9,1,7.7,0,11.5c-1,4.1-3.9,6.7-4.2,11
		c-0.3,3.6-0.6,5.4-2.3,8.5c-1.9,3.4-3.8,6.5-5.5,10C264.5,234.2,263.8,233.6,259.6,233.5z"/>
	<path id="XMLID_32_" class="st3" d="M245.8,93c-1.6,2.6-7.8,4.2-10.6,2.6c-2.6-1.5-3.1-4.7-7.1-5.7c-3.1-0.8-9.5,0.7-11.7-2
		c-1.9-2.3,0.8-6.5-1.3-8.4c-1.6-1.5-5.2-0.2-7.1-1.5c-0.5-0.4-2.9-3.3-3.2-3.9c0-0.1-0.1-0.2-0.1-0.3c2.4-0.3,4.8-0.6,7.2-0.8
		c2.1-0.1,4.2-0.2,6.3-0.2c9.5,0,18.7,1.4,27.4,4.1c0.3,0.1,0.7,0.2,1,0.3c-0.5,1-1.1,2-1.3,3.4C244.7,84.8,248.4,88.9,245.8,93z"/>
	<path id="XMLID_31_" class="st3" d="M190.3,239.7c3.8,0.6,7.5,0.3,11.1-0.3c3.7-0.5,10.1-1.2,13.5,0.5c2.2,1.1,2.3,3.6,4.2,5
		c1.8,1.2,5.1,0.7,7.2,1.3c0.2,1.9-1.1,3.4-0.8,5.5c6.3,0.3,14.7,0.8,20.1-2.9c5.1-3.6-0.1-7,1.6-11.7c1.2-3.3,3.9-3.4,6.5-2
		c3.1,1.7,3.9,4.9,5.8,7.3c1.2,1.6,4.3,1.1,5.3,2.9c0.1,0.3,0.2,0.5,0.3,0.8c-0.7,0.4-1.3,0.8-2,1.1c-13.3,7.3-28.5,11.5-44.7,11.5
		c-17,0-32.9-4.6-46.6-12.5c-4.5-2.6-8.7-5.6-12.7-8.9c0.8-0.5,1.9-0.6,3.4-0.8C171.9,235.5,181.2,238.3,190.3,239.7z"/>
</g>
</svg>
