<?xml version="1.0" encoding="utf-8"?>
<!-- Generator: Adobe Illustrator 19.0.0, SVG Export Plug-In . SVG Version: 6.00 Build 0)  -->
<svg version="1.1" id="Layer_1" xmlns="http://www.w3.org/2000/svg" xmlns:xlink="http://www.w3.org/1999/xlink" x="0px" y="0px"
	 viewBox="0 0 411.7 411.7" style="enable-background:new 0 0 411.7 411.7;" xml:space="preserve">
<style type="text/css">
	.st0{fill:#AE87BC;}
	.st1{fill:#1DA5A1;}
	.st2{fill:#57BEC3;}
	.st3{fill:#222830;}
	.st4{fill:#FFFFFF;}
</style>
<circle id="XMLID_33_" class="st0" cx="205.9" cy="205.9" r="205.9"/>
<path id="XMLID_30_" class="st1" d="M2493.4,2360.9c0,0-0.3,6-0.6,6.7c-1.7,4.8-6.6,8.2-12.5,8.2c-5.9,0-10.9-3.5-12.5-8.2
	c-0.3-0.8-0.5-1.5-0.5-2.4l1-1.1l4.5-8.9C2483.5,2360.4,2480.8,2359.6,2493.4,2360.9z"/>
<path id="XMLID_27_" class="st1" d="M2377.7,2366.5v10.7h-0.1c-0.6,5.9-6.2,10.6-13.1,10.6c-6.8,0-12.4-4.7-13.1-10.6l-5.9-0.8
	l13.4-10.6C2378.2,2363.9,2377.7,2366.5,2377.7,2366.5z"/>
<path id="XMLID_13_" class="st2" d="M356,180c-1-0.9-2.4-1.4-3.9-1.4h-14.2c0-0.1,0-0.1-0.1-0.2c-10.7-30.5-45.2-57.7-75.6-63.3
	c-0.9-0.2-1.8-0.3-2.7-0.5V97.5h-0.1c-0.1,0-0.2,0-0.2,0c-11.5,0.1-20.8,7.1-20.8,15.7l-66.3,0.6c-48,0-88.4,29.2-100,68.9
	c-1.4,4.8-4.4,16.6-2.5,35.5c0,0,7.9,48.3,52.7,63.8L122,305h0c0.1,9.6,8.7,17.3,19.5,17.3c10.7,0,19.4-7.7,19.5-17.3h0v0l-0.1-11.5
	c3.6,0.4,81.3,0.5,82.8,0.4l0.1,11.1h0c0.1,9.6,8.7,17.3,19.5,17.3c10.7,0,19.4-7.7,19.5-17.3h0v0h0l0.1-19.1
	c26.1-10.8,46.2-27.1,54.9-51.9c0,0,0,0,0,0h14.3c3,0,5.5-2.2,5.5-4.9v-45.6C357.6,182.1,357,180.8,356,180z"/>
<path id="XMLID_16_" class="st1" d="M81.3,196.7c-0.9,4.2-9.2,11.2-23.3,2.5c2.5-1.4,5.5-2.9,7.4-6.9l0,0c2.4-5.2,0.5-10.2-3-13.8
	c-3-3.1-7.8-5.5-12-5.9c-13.4-0.4-8.5,17.3,0.4,25.1l0.5,0.5c0.5,0.4,0.8,0.8,1.2,1.1c-2.1,1.8-5.7,3.9-9.9,5
	c-1.3,0.3-2.2,1.5-2.1,2.9c0,0,0,0,0,0c0.1,0.5,0.4,0.9,0.9,1c1.5,0.3,6,0.2,13.9-6.4c5.6,4.4,12.8,7.9,18.5,7.7
	c6.1-0.1,12.5-3.2,13.7-10.2L81.3,196.7z M55.3,179.4c1.5,0.7,2.8,1.8,3.6,3.3c0.5,0.9,0.8,1.7,1.1,2.5c0.6,1.7,0.5,3.6-0.4,5.2
	c-1.9,3.4-4.1,5.5-4.1,5.5C45.9,190.7,44.2,174.4,55.3,179.4z"/>
<path id="XMLID_2_" class="st3" d="M234.5,126.2L234.5,126.2c-0.4,1.5-1.9,2.6-3.8,2.6h-65.9c-1.9,0-3.4-1.1-3.8-2.6v0
	c0.2-0.6,0.5-1.2,1.1-1.7c0.7-0.6,1.7-1,2.8-1h65.9C232.5,123.5,234.1,124.7,234.5,126.2z"/>
<path id="XMLID_10_" class="st1" d="M2458.3,2208.3l0,23.1c-0.3-1.2-2.9,5-13.3,4.7c-3.5-0.1-6.8-0.8-9.7-2.2
	c-0.3-1.3-0.4-2.6-0.4-3.9C2434.9,2218.3,2445.3,2208.7,2458.3,2208.3z"/>
<path id="XMLID_5_" class="st1" d="M357.6,183.4V229c0,2.7-2.5,4.9-5.5,4.9h-14.3c0,0,0,0,0,0c-10.3-4.1-17.8-15-17.8-27.8
	c0-12.9,7.4-23.8,17.8-27.8c0,0.1,0,0.1,0.1,0.2h14.2c1.5,0,2.9,0.5,3.9,1.4C357,180.8,357.6,182,357.6,183.4z"/>
<path id="XMLID_9_" class="st3" d="M304.6,179.6c0,5.7-5.2,10.3-11.5,10.3c-6.3,0-11.5-4.6-11.5-10.3c0-5.7,5.2-10.3,11.5-10.3
	C299.5,169.3,304.6,173.9,304.6,179.6z"/>
<ellipse id="XMLID_8_" class="st4" cx="296" cy="176.6" rx="2.7" ry="2.4"/>
</svg>
