<?xml version="1.0" encoding="utf-8"?>
<!-- Generator: Adobe Illustrator 19.0.0, SVG Export Plug-In . SVG Version: 6.00 Build 0)  -->
<svg version="1.1" id="Layer_1" xmlns="http://www.w3.org/2000/svg" xmlns:xlink="http://www.w3.org/1999/xlink" x="0px" y="0px"
	 viewBox="0 0 411.7 411.7" style="enable-background:new 0 0 411.7 411.7;" xml:space="preserve">
<style type="text/css">
	.st0{fill:#3FB1E6;}
	.st1{fill-rule:evenodd;clip-rule:evenodd;fill:#040708;}
	.st2{fill-rule:evenodd;clip-rule:evenodd;fill:#EA5140;}
	.st3{fill-rule:evenodd;clip-rule:evenodd;fill:#EDF8FE;}
</style>
<circle id="XMLID_28_" class="st0" cx="205.9" cy="205.9" r="205.9"/>
<path id="XMLID_27_" class="st1" d="M272.3,224.1c-57.6-53.4-115.5-104-180.7-66.8c-1.4-8.1-0.6-16.3,15.9-25.6
	c66.5-25.8,126.3-4,179.7,63.4L272.3,224.1z"/>
<path id="XMLID_26_" class="st2" d="M205.3,292.3c-32,6-62.5-9.9-84.1-30.3c-19.6-18.5-55-76.3-30.8-117
	c58-21.9,118.6-11.9,185.1,69.2c-48.8-74.1-110.5-96.2-183.6-72.9c45.3-47.8,114.6-41.3,147.3-31.1c40.7,12.7,86.4,50.7,77.5,94.2
	l-79.3,73.9C226.6,285.8,215.9,290.3,205.3,292.3z"/>
<path id="XMLID_25_" class="st1" d="M249.7,292.8c-7.4-1.1-15.3-3.9-23.7-8.7c0.5-16.3,0.5-25.2,7.6-37.9
	c15.3-21.4,43-44.1,58.2-50.9c7.7-2.1,17.9-2.2,26.3,1.5c14.7,19.7,18.3,43.7-8.4,79.1C290.8,285.8,272,296.4,249.7,292.8z"/>
<path id="XMLID_24_" class="st3" d="M325,249.9l-0.1-0.9c-3.2-18.3-16.9-18.9-20-28.7c-4.1-13.5,7.3-19.7,20.8-8l1.3,1.2l1,3.2
	c2.5,9.3,2,19.8-2.6,31.9L325,249.9z"/>
<path id="XMLID_23_" class="st3" d="M255.2,293.4l-5-0.5l-0.8-0.8c-6.7-7.3-3.2-20,1.6-28.5c1.7-3.1,1.4-17,5.9-17.1
	c24.3-0.4,37.4,21.3,29.7,39.6l-0.8,1.5l-4.8,1.8C272.8,292.3,264.2,294,255.2,293.4z"/>
<path id="XMLID_22_" class="st3" d="M287.1,288.1c-2.3-1.7-2.8-4.9-1-7.2c1.7-2.4,4.9-2.8,7.3-1c2.3,1.7,2.7,5,1,7.3
	C292.7,289.4,289.5,289.9,287.1,288.1z"/>
<path id="XMLID_21_" class="st3" d="M320.4,254.4c-2.1-1.5-2.5-4.5-1-6.5c1.6-2.1,4.5-2.5,6.6-0.9c2,1.5,2.4,4.5,0.9,6.5
	C325.4,255.6,322.4,256,320.4,254.4z"/>
<path id="XMLID_20_" class="st1" d="M190.4,193.6c-12.5,6-51.3-6.1-42.4-25.9c9.3-20.9,43.6-10.7,50.7,7.9
	C200.6,183.5,194.2,191.8,190.4,193.6z"/>
<path id="XMLID_19_" class="st1" d="M245.4,134.6c-11.1,3.6-48-6.6-41.6-20.2c6.8-14.5,39.5-5.8,47.6,7.8
	C253.9,127.8,248.7,133.5,245.4,134.6z"/>
<path id="XMLID_18_" class="st1" d="M182.2,265.4c-9.5,6.2-34.8-0.7-30.3-17.8c5.2-20.2,31.6-14.7,36.5,1
	C191.2,255.8,186.9,262.4,182.2,265.4z"/>
<path id="XMLID_17_" class="st1" d="M117.3,215c-3.7,1-8.1,0.9-11.6-1.6c-9-2.5-14.8-23.7-3.5-30.7c13.9-8.7,29.5,15.1,22.8,27.5
	C123.9,211.9,120.9,214,117.3,215z"/>
<path id="XMLID_2_" class="st1" d="M308.2,165.8c-9.5,6.1-34.8-0.8-30.3-17.9c1.3-5,3.9-8.5,7.2-10.6l1.8-0.8l0.5,0.4
	c8.7,7.5,16.3,16.1,21.6,25.4l1,1.8L308.2,165.8z"/>
<path id="XMLID_1_" class="st1" d="M134.1,116.8l-4.8-1.9l0,0c8.4-3.7,17-6.5,25.5-8.3l4.5-1l0.5,4.2c-0.1,1.6-0.4,2.9-1,3.8
	c-0.6,0.9-1.5,1.6-2.9,2.3C150.9,118.5,141.4,118.9,134.1,116.8z"/>
</svg>
