<?xml version="1.0" encoding="utf-8"?>
<!-- Generator: Adobe Illustrator 19.0.0, SVG Export Plug-In . SVG Version: 6.00 Build 0)  -->
<svg version="1.1" id="Layer_1" xmlns="http://www.w3.org/2000/svg" xmlns:xlink="http://www.w3.org/1999/xlink" x="0px" y="0px"
	 viewBox="0 0 65.4 106.9" style="enable-background:new 0 0 65.4 106.9;" xml:space="preserve">
<style type="text/css">
	.st0{fill:#575756;}
</style>
<g id="XMLID_1_">
	<path id="XMLID_3_" class="st0" d="M0,2c6.6-1.1,15.3-2,26.3-2c13.5,0,23.5,3.1,29.8,8.8c5.8,5,9.3,12.8,9.3,22.2
		c0,9.6-2.8,17.2-8.2,22.7c-7.2,7.7-19.1,11.7-32.4,11.7c-4.1,0-7.9-0.2-11-0.9v42.5H0V2z M13.7,53.2c3,0.8,6.8,1.1,11.3,1.1
		c16.5,0,26.6-8,26.6-22.7c0-14-9.9-20.8-25-20.8c-6,0-10.6,0.5-12.9,1.1V53.2z"/>
</g>
</svg>
