<?xml version="1.0" encoding="utf-8"?>
<!-- Generator: Adobe Illustrator 19.0.0, SVG Export Plug-In . SVG Version: 6.00 Build 0)  -->
<svg version="1.1" id="Layer_1" xmlns="http://www.w3.org/2000/svg" xmlns:xlink="http://www.w3.org/1999/xlink" x="0px" y="0px"
	 viewBox="-301 415.5 163.3 195" style="enable-background:new -301 415.5 163.3 195;" xml:space="preserve">
<style type="text/css">
	.st0{fill:#2E3192;}
	.st1{fill:#FFFFFF;}
	.st2{font-family:'ArialMT';}
	.st3{font-size:24px;}
	.st4{letter-spacing:1;}
</style>
<path class="st0" d="M-237,529.6c-11.6-9.1-15.5-19.2-18.3-30.2c-1.1-4.3-3.4-8.4-6-12.1c-5.7-8.1-5.7-15.3-0.1-23
	c1.5-2.1,1.3-5.7,1.2-8.6c-0.3-21,12.8-36.5,33.7-39.7c21.6-3.3,41.1,8.1,46.3,27.1c0.7,2.7,1,5.6,1.3,8.4
	c0.7,5.8-0.6,11.2,4.3,16.9c4.9,5.8,0.7,13.6-3.8,19.8c-1.7,2.4-3.6,5-4.3,7.8c-3.1,12.1-6.4,23.9-19,33.4
	c7.2,3.3,12.7,6.5,18.6,8.3c8.3,2.6,17.2,3.6,25.5,6.3c14.5,4.7,21.1,15.5,19.7,31.5c-54.2,0-108.5,0-162.8,0
	c-2-14.4,4.4-26.1,17.7-30.8c8.5-3,17.6-4,26.2-6.7C-250.6,536.1-244.8,533-237,529.6z M-253.5,468.8c-7.1-3.1-9.8-2.2-10.1,3.9
	c-0.7,12.1,8.6,18.8,15.9,25.9c5.7,5.5,11.6-0.5,16.5-3.8c8-5.4,15.7-5.6,23.6,0c2.5,1.8,5.1,3.8,8,4.5c2.7,0.7,7.1,1,8.5-0.6
	c5.6-6.2,10.9-12.8,15-20c1.5-2.6,0.2-7.4-1.1-10.7c-0.3-0.8-5.4,0.1-8.4,0.3c-4.6-19.3-7.5-21-27.2-17.5c-4.7,0.8-9.8,0.6-14.5-0.3
	c-17.3-3.4-21.4-1-25.4,16.2C-252.9,467.4-253.3,468.1-253.5,468.8z M-244.9,537.4c17.1,8.1,33.9,8.2,51.1,0
	c-4.3-5.6-8.3-8.1-15.8-5.4c-5.6,2.1-13.2,2.3-18.7,0.3C-235.9,529.5-240.3,531.4-244.9,537.4z M-234.5,508.5
	c10.2,4.2,20,4.2,30.3,0C-211.5,498.8-227.7,498.9-234.5,508.5z"/>
<path class="st1" d="M-253.5,468.8c0.3-0.7,0.7-1.4,0.8-2.1c4-17.1,8.1-19.6,25.5-16.2c4.7,0.9,9.8,1.1,14.5,0.3
	c19.7-3.5,22.6-1.8,27.2,17.5c2.9-0.1,8-1.1,8.4-0.3c1.3,3.3,2.6,8.1,1.1,10.7c-4.2,7.2-9.4,13.8-15,20c-1.4,1.6-5.8,1.3-8.5,0.6
	c-2.9-0.7-5.5-2.7-8-4.5c-7.9-5.6-15.6-5.4-23.6,0c-4.9,3.3-10.8,9.3-16.5,3.8c-7.4-7.1-16.7-13.8-16.1-25.9
	C-263.4,466.6-260.6,465.7-253.5,468.8z"/>
<path class="st1" d="M-244.9,537.4c4.6-6,9-7.9,16.5-5.1c5.5,2.1,13.1,1.8,18.7-0.3c7.5-2.7,11.5-0.2,15.8,5.4
	C-211,545.6-227.8,545.5-244.9,537.4z"/>
<path class="st1" d="M-234.5,508.5c6.8-9.6,22.9-9.7,30.3,0C-214.5,512.7-224.2,512.7-234.5,508.5z"/>
<text transform="matrix(1 0 0 1 -257.218 603.0459)" class="st0 st2 st3 st4">MANN</text>
</svg>
