<?xml version="1.0" encoding="utf-8"?>
<!-- Generator: Adobe Illustrator 19.0.0, SVG Export Plug-In . SVG Version: 6.00 Build 0)  -->
<svg version="1.1" id="Layer_1" xmlns="http://www.w3.org/2000/svg" xmlns:xlink="http://www.w3.org/1999/xlink" x="0px" y="0px"
	 viewBox="0 0 163.3 160.1" style="enable-background:new 0 0 163.3 160.1;" xml:space="preserve">
<style type="text/css">
	.st0{fill:#2E3192;}
	.st1{fill:#FFFFFF;}
</style>
<path class="st0" d="M64,114.1c-11.6-9.1-15.5-19.2-18.3-30.2c-1.1-4.3-3.4-8.4-6-12.1c-5.7-8.1-5.7-15.3-0.1-23
	c1.5-2.1,1.3-5.7,1.2-8.6c-0.3-21,12.8-36.5,33.7-39.7c21.6-3.3,41.1,8.1,46.3,27.1c0.7,2.7,1,5.6,1.3,8.4
	c0.7,5.8-0.6,11.2,4.3,16.9c4.9,5.8,0.7,13.6-3.8,19.8c-1.7,2.4-3.6,5-4.3,7.8c-3.1,12.1-6.4,23.9-19,33.4
	c7.2,3.3,12.7,6.5,18.6,8.3c8.3,2.6,17.2,3.6,25.5,6.3c14.5,4.7,21.1,15.5,19.7,31.5c-54.2,0-108.5,0-162.8,0
	c-2-14.4,4.4-26.1,17.7-30.8c8.5-3,17.6-4,26.2-6.7C50.4,120.6,56.2,117.5,64,114.1z M47.5,53.3c-7.1-3.1-9.8-2.2-10.1,3.9
	C36.7,69.3,46,76,53.3,83.1c5.7,5.5,11.6-0.5,16.5-3.8c8-5.4,15.7-5.6,23.6,0c2.5,1.8,5.1,3.8,8,4.5c2.7,0.7,7.1,1,8.5-0.6
	c5.6-6.2,10.9-12.8,15-20c1.5-2.6,0.2-7.4-1.1-10.7c-0.3-0.8-5.4,0.1-8.4,0.3c-4.6-19.3-7.5-21-27.2-17.5c-4.7,0.8-9.8,0.6-14.5-0.3
	C56.4,31.6,52.3,34,48.3,51.2C48.1,51.9,47.7,52.6,47.5,53.3z M56.1,121.9c17.1,8.1,33.9,8.2,51.1,0c-4.3-5.6-8.3-8.1-15.8-5.4
	c-5.6,2.1-13.2,2.3-18.7,0.3C65.1,114,60.7,115.9,56.1,121.9z M66.5,93c10.2,4.2,20,4.2,30.3,0C89.5,83.3,73.3,83.4,66.5,93z"/>
<path class="st1" d="M47.5,53.3c0.3-0.7,0.7-1.4,0.8-2.1c4-17.1,8.1-19.6,25.5-16.2c4.7,0.9,9.8,1.1,14.5,0.3
	c19.7-3.5,22.6-1.8,27.2,17.5c2.9-0.1,8-1.1,8.4-0.3c1.3,3.3,2.6,8.1,1.1,10.7c-4.2,7.2-9.4,13.8-15,20c-1.4,1.6-5.8,1.3-8.5,0.6
	c-2.9-0.7-5.5-2.7-8-4.5c-7.9-5.6-15.6-5.4-23.6,0c-4.9,3.3-10.8,9.3-16.5,3.8C46,76,36.7,69.3,37.3,57.2
	C37.6,51.1,40.4,50.2,47.5,53.3z"/>
<path class="st1" d="M56.1,121.9c4.6-6,9-7.9,16.5-5.1c5.5,2.1,13.1,1.8,18.7-0.3c7.5-2.7,11.5-0.2,15.8,5.4
	C90,130.1,73.2,130,56.1,121.9z"/>
<path class="st1" d="M66.5,93c6.8-9.6,22.9-9.7,30.3,0C86.5,97.2,76.8,97.2,66.5,93z"/>
</svg>
