<?xml version="1.0" encoding="utf-8"?>
<!-- Generator: Adobe Illustrator 19.0.0, SVG Export Plug-In . SVG Version: 6.00 Build 0)  -->
<svg version="1.1" id="Layer_1" xmlns="http://www.w3.org/2000/svg" xmlns:xlink="http://www.w3.org/1999/xlink" x="0px" y="0px"
	 viewBox="0 0 411.7 411.7" style="enable-background:new 0 0 411.7 411.7;" xml:space="preserve">
<style type="text/css">
	.st0{fill:#CCDFA2;}
	.st1{fill:#88BA42;}
	.st2{fill:#F2F2F2;}
</style>
<path id="XMLID_5_" class="st0" d="M0,205.9C0,92.2,92.2,0,205.9,0s205.9,92.2,205.9,205.9"/>
<path id="XMLID_4_" class="st0" d="M411.7,205.9c0,113.7-92.2,205.9-205.9,205.9S0,319.6,0,205.9"/>
<path id="XMLID_3_" class="st1" d="M310.6,249.5c2.3-5.9,17.6-60.8-60-91.4c-78.9-35.5-153.5-58.4-152.1-57.9
	c-1.4-0.5,24.4,173.7,104.4,205.7C281.5,333.1,309.5,251.7,310.6,249.5z"/>
<path id="XMLID_2_" class="st2" d="M245.3,261.2c-18.4,17.1-48.2,24.6-52.3,24.4c4.2,0.5,34.4-4.2,53.9-21.3
	c8.3-7.2,12.4-11.9,14.5-14.9c12.9,2.6,22.2,2.9,28.8,2.8c-2.6,2.7-7.2,7.6-15.7,16.2c-19.4,20.2-51.4,32.4-55.9,32.8
	c4.6-0.1,37-9.5,57.6-30c10.5-10.3,14.7-16.1,16.4-19c12.1-0.7,13.4-2.1,13.5-2.1c-0.1-0.1-0.7-0.7-12.1-2c0.3-3.1-0.2-8.8-3.6-20.6
	c-6.9-21.8-28-47.5-31.2-51.8c3,4.4,22,32.2,27.9,54c2.6,10,3.9,15.2,4.7,18.1c-6.3-0.9-15.3-2.1-28-5.5c0-3.4-0.7-9.2-3.4-19.7
	c-6.4-23.2-25.8-52.2-28.6-56.9c2.7,4.8,20.1,35.5,25.5,58.6c2,8.8,3.2,14,3.9,17.3c-8.5-2.4-18.7-5.8-30.4-11.1
	c-0.1-3.4-0.8-9-2.8-18.4c-5.4-23.5-21.9-53.7-24.3-58.4c2.3,4.8,17,36.4,21.6,59.5c1.5,7.8,2.4,12.8,3,16.1
	c-9.7-4.6-19.2-10-28.2-16c-0.1-3-0.6-7.5-1.8-14.5c-3.9-20.5-16.2-47.1-17.9-51c1.6,3.8,12.6,31.5,15.8,51.6
	c0.9,5.7,1.5,9.7,1.9,12.6c-9.8-6.7-19.1-14-27.6-21.7c-0.1-2.5-0.4-6.3-1.2-12c-2.6-17.9-11.6-41.5-12.8-44.9
	c1.2,3.4,9.1,27.8,11.2,45.2c0.5,4.5,0.9,7.8,1.2,10.3c-10.2-9.3-19.2-19.1-27-28.4c-0.1-1.6-0.2-3.6-0.5-6.4
	c-1.2-11.6-6-27-6.6-29.1c0.6,2.2,4.8,18,5.7,29.2c0.2,2.2,0.3,3.9,0.4,5.3c-21.7-26.6-33-49-33.1-48.8c0.1-0.2,10.6,24.3,31.6,53
	c-0.7,0.4-1.5,0.8-2.5,1.4c-5.5,3-14.1,0.7-15.2,0.1c1.1,0.7,9.7,4.3,15.5,1.6c1.3-0.7,2.3-1.3,3-1.8c7.5,10.1,16.3,20.6,26.3,30.5
	c-1.3,0.9-3.1,2-5.6,3.5c-9.7,6.1-24.9,4.2-26.8,3.3c2,1,17.3,5,27.5-0.8c3.1-1.8,5.1-3.3,6.4-4.5c8.4,8.2,17.5,16,27.2,22.9
	c-1.8,1.3-4.2,3.1-7.7,5.5c-12.7,9.1-32.6,9.2-35.2,8.4c2.6,1,22.8,3.3,36.1-5.5c4.4-2.9,7.1-5.2,8.7-7c9,6.2,18.4,11.7,28.1,16.3
	c-2.3,1.9-5.8,4.8-11.1,9c-16.3,13.3-42.3,16.5-45.9,15.8c3.6,0.9,30,0.6,47.2-12.6c6.6-5,10.2-8.6,12.2-11.1
	c11.8,5.3,22,8.4,30.6,10.4C256.1,251.3,252,255.2,245.3,261.2z"/>
</svg>
