<?xml version="1.0" encoding="utf-8"?>
<!-- Generator: Adobe Illustrator 19.0.0, SVG Export Plug-In . SVG Version: 6.00 Build 0)  -->
<svg version="1.1" id="Layer_1" xmlns="http://www.w3.org/2000/svg" xmlns:xlink="http://www.w3.org/1999/xlink" x="0px" y="0px"
	 viewBox="0 0 1080.2 414.2" style="enable-background:new 0 0 1080.2 414.2;" xml:space="preserve">
<style type="text/css">
	.st0{fill:#FF7400;}
	.st1{fill:#FFA416;}
</style>
<rect id="XMLID_16_" x="-5.1" y="0" class="st0" width="1086.3" height="414.8"/>
<path class="st1" d="M758.1,0.1c106,0,212,0,318-0.1c3.4,0,4.1,0.7,4.1,4.1c-0.2,25.3-0.1,50.7-0.1,76c-2.1,0.1-4.3,0.1-6.4,0.4
	c-21.3,3.4-42.7,7-64,10.2c-76.7,11.8-153.4,23.5-230.1,35.2c-40.8,6.2-81.7,12.4-122.5,18.7c-1.8,0.3-3.9-0.1-5.5,2.4
	c2.9,1,5.4,0.4,7.7,0c45.6-6.6,91.1-14.1,136.7-20.4c24-3.3,47.8-7.7,71.8-11.3c36.6-5.5,73.3-10.7,110-16.3
	c21-3.2,41.9-6.9,62.9-10.4c13.1-2.2,26.3-4.4,39.4-6.6c0,13,0,26,0,39c-10.1,5.5-19.5,11.9-29.2,18.1
	c-27.5,17.7-55.1,35.3-82.7,52.9c-25.9,16.5-52,32.9-78,49.4c-17.9,11.4-36.3,22-54.2,33.4C798.6,298.9,641,397.1,628.1,405.4
	c-4.1,2.7-9,4.5-12,8.7c-92,0-184,0-276,0c0.7-1.2,1.2-2.4,2-3.5c18.1-26.2,36.2-52.3,54.2-78.5c26-37.7,52-75.3,77.9-113.1
	c10.3-15,20.2-30.1,30.3-45.2c1.8-2.7,4.1-4.1,7.3-4.6c8.1-1.1,16.2-1.9,24.2-3.3c30.3-5.3,60.8-9.6,91.3-14.1
	c6.6-1,13.2-2.1,19.8-3.2c-0.1-0.7-0.2-1.3-0.3-2c-45,5-89.7,13.2-134.7,18.6c1.3-1.6,2.8-2.6,4.3-3.6
	c28.8-19.2,57.7-38.4,86.5-57.7C654.6,69.4,706.3,34.7,758.1,0.1z"/>
<path id="XMLID_21_" class="st1" d="M581.1,0.1C561,11.6,541,23.2,520.9,34.7C479.5,58.2,438,81.6,396.5,105
	c-18.9,10.6-37.9,21-56.7,31.7c-41.2,23.5-136.6,78.3-139.1,79.6c-12.8,7.1-25.6,14.2-38.5,21.1c-17.2,9.2-33.8,19.3-50.7,29
	c-35.5,20.4-71,40.9-106.5,61.3c-1.7,1-3.3,2.2-5,3.3c0-51.7,0-103.3,0-155c1.9-2.1,3.8-4.1,5.7-6.3c32.2-36.2,64.5-72.3,96.6-108.6
	c3.3-3.7,6.8-5.8,11.7-6.5c33.7-5.2,67.4-10.5,101.1-16.2c61.6-10.4,123.1-21,184.6-31.6c12.5-2.2,25-3.7,37.3-6.9
	C485.1,0.1,533.1,0.1,581.1,0.1z"/>
<path class="st1" d="M0.1,171.1c0-50,0-100,0-150c13-7,26-14,39-21c37.3,0,74.7,0,112,0C133.5,20.5,116,41,98.2,61.2
	C65.6,98,32.8,134.5,0.1,171.1z"/>
<path id="XMLID_20_" class="st1" d="M752.1,0.1C722.2,20,692.2,40,662.3,59.9c-1.6,1.1-101.6,35-101.9,32.9
	c-0.4-2.9,14.2-21.4,15.8-23.6c11.4-16.2,22.8-32.4,34.2-48.7c3.6-5.2,7.3-10.3,10.9-15.5c1-1.5,2.5-2.8,1.9-4.9
	C666.1,0.1,709.1,0.1,752.1,0.1z"/>
<path id="XMLID_19_" class="st1" d="M620.1,0.1c-11.1,16-22.2,32-33.2,48.1c-5.2,7.5-10.4,15.1-15.6,22.6c-2,2.9-3.8,5.5-8.4,3.3
	c-3.7-1.8-27.2,8.9-27.5,9.8c-2,5.4-105.3,44.6-105.7,43.3c-1-3.8,36.2-53.3,35.7-55.6c-0.4-2.1,2.1-2.7,3.6-3.6
	c37-21.2,74-42.3,111-63.5c2-1.1,4.5-1.7,5.1-4.3C596.8,0.1,608.4,0.1,620.1,0.1z"/>
<path id="XMLID_18_" class="st1" d="M206.1,0.1c70.7,0,141.3,0,212,0c-11.5,2.1-22.9,5.1-34.4,5.7c-4.2,0.2-7.5,0.2-11.4,2.3
	c-3.3,1.8-7.7,1.6-11.7,2c-17.5,2.1-34.5,7.4-52.1,8.9c-5.5,0.5-10.8,1.8-16.2,2.7c-5.4,0.9-10.8,1.9-16.2,2.8
	c-5.6,0.9-11.9,3.9-16.6,2.2c-6.1-2.2-9.3,1.3-13.6,2.9c-0.3,0.1-0.7,0.1-1,0.2c-10.6,0.8-21,2.9-31.4,4.8c-1.7,0.3-3.4,0.5-4.9-0.5
	c-3.3-2.2-6.9-1.4-10.6-1.5c-4.6-0.2-40.4,6.8-44.9,4.7c-1-0.5,26.4-16.2,27.1-19.1c0.2-1,0.7-2,1.7-2.4c7.1-2.9,12.2-9,19.4-11.7
	C203.2,3.4,205.3,2.4,206.1,0.1z"/>
<path id="XMLID_14_" class="st1" d="M1010.4,418c0.5-5.5,66.2-79,67.2-83.3c0.6-2.8,4.2-2.5,6.6-3.2c0,27.3-0.3,54.7-0.2,82
	c0,2.5,3.6,3.8,1.1,3.8C1077.4,419.1,1017.4,418,1010.4,418z"/>
</svg>
